<?xml version="1.0" encoding="UTF-8" standalone="no"?>
<svg
   version="1.2"
   width="611.99048"
   height="208.87131"
   viewBox="0 0 611.99047 208.8713"
   stroke-linecap="round"
   stroke-linejoin="round"
   id="svg46"
   xml:space="preserve"
   xmlns="http://www.w3.org/2000/svg"
   xmlns:svg="http://www.w3.org/2000/svg"><defs
     id="defs46" /><g
     id="RiskMapV2-2"
     style="fill:#cccccc"
     transform="translate(-175.05912,-170.97161)"><g
       style="stroke-linecap:round;stroke-linejoin:round"
       id="g1"
       transform="translate(138.89936,434.13954)"><g
         id="RiskMapV2-1"
         transform="matrix(0.56978403,0,0,0.56978403,38.759501,-230.50373)"
         style="fill-opacity:1;stroke:#000000;stroke-opacity:1"><path
           d="m 896.70948,76.161822 55.45961,-1.105682 -1.54445,4.14192 6.54634,14.303665 -12.1976,18.585985 -0.96528,-32.275382 -4.22967,19.358211 -11.02172,-8.178537 -8.05568,-9.371972 -24.13195,1.579546 z"
           id="Maryland"
           style="fill-opacity:1;stroke:#000000;stroke-width:3.5101;stroke-dasharray:none;stroke-opacity:1" /><path
           d="m 664.88481,24.545775 h 71.50077 l 7.84508,13.548993 6.31818,9.512375 -16.91869,19.586369 -59.35582,-2.825632 -9.28422,-26.027405 z"
           id="Iowa"
           style="fill-opacity:1;stroke:#000000;stroke-width:3.5101;stroke-dasharray:none;stroke-opacity:1" /><path
           d="m 823.92752,49.186689 18.48068,-0.491414 40.06782,-3.352147 v 18.28763 l -28.32652,30.274628 -30.41504,-9.33687 z"
           id="Ohio"
           style="fill-opacity:1;stroke:#000000;stroke-width:3.5101;stroke-dasharray:none;stroke-opacity:1" /><path
           d="m 882.47602,45.343128 10.33725,-3.983965 60.37375,3.773359 8.81035,8.687502 -9.82828,21.236116 -55.45961,1.105682 H 882.47602 V 63.630758 Z"
           id="Pennsylvania"
           style="fill-opacity:1;stroke:#000000;stroke-width:3.5101;stroke-dasharray:none;stroke-opacity:1" /><path
           d="m 561.10865,31.372923 103.88146,6.967552 9.28422,26.027405 6.24798,7.985481 -92.08752,-0.05265 0.0175,-13.636746 -27.34369,0.01755 z"
           id="Nebraska"
           style="fill-opacity:1;stroke:#000000;stroke-width:3.5101;stroke-dasharray:none;stroke-opacity:1" /><path
           d="m 383.88361,-50.535306 1.57954,41.0155426 -73.01011,6.160229 -17.55051,-9.7580826 -16.07627,-29.046093 28.32652,6.353284 -1.45669,-14.75998 z"
           id="Washington"
           style="fill-opacity:1;stroke:#000000;stroke-width:3.5101;stroke-dasharray:none;stroke-opacity:1" /><path
           d="m 969.14568,284.82881 85.61522,2.49684 -82.72414,20.17181 z"
           id="Puerto Rico"
           style="fill-opacity:1;stroke:#000000;stroke-width:3.5101;stroke-dasharray:none;stroke-opacity:1" /><path
           d="m 777.59418,140.69504 35.43447,0.14041 8.23119,54.40657 -35.46958,0.0351 1.10568,9.79319 -11.96944,-1.21099 z"
           id="Puerto Rico"
           style="fill-opacity:1;stroke:#000000;stroke-width:3.5101;stroke-dasharray:none;stroke-opacity:1" /><path
           d="m 689.94693,120.16095 60.97047,0.0526 5.73902,6.75694 -7.86263,13.70695 -11.70619,27.20329 -39.27804,-0.21061 -6.05492,-8.44179 z"
           id="Alabama"
           style="fill-opacity:1;stroke:#000000;stroke-width:3.5101;stroke-dasharray:none;stroke-opacity:1" /><path
           d="m 492.94247,113.3338 82.52249,-0.0175 v 6.82715 l -0.85997,61.44433 -47.29862,2.96603 -34.4341,6.16023 z"
           id="New Mexico"
           style="fill-opacity:1;stroke:#000000;stroke-width:3.5101;stroke-dasharray:none;stroke-opacity:1" /><path
           d="m 575.46496,120.1434 h 40.98044 l 4.15947,28.94079 71.14977,10.14419 6.05492,8.44179 2.79053,45.45582 -43.2269,24.34256 -5.72147,28.23877 -22.6577,-7.59938 -31.66112,-45.63132 h -17.42766 l -8.24874,10.3197 -44.35013,-38.24256 47.29862,-2.96603 z"
           id="Texas"
           style="fill-opacity:1;stroke:#000000;stroke-width:3.5101;stroke-dasharray:none;stroke-opacity:1" /><path
           d="m 285.84646,45.06232 57.51302,0.05265 -0.0175,40.892686 73.29093,54.599634 -1.17589,31.1697 -32.837,2.52727 -19.0423,-20.39368 -28.73019,-7.19571 L 312.45309,98.959932 292.3753,86.621924 Z"
           id="California"
           style="fill-opacity:1;stroke:#000000;stroke-width:3.5101;stroke-dasharray:none;stroke-opacity:1" /><path
           d="m 764.85251,113.56196 15.09343,-11.16213 27.23839,-2.33422 16.55013,-15.497094 30.41504,9.33687 8.52954,12.074754 -23.30707,12.79432 -80.06543,1.40404 z"
           id="Kentucky"
           style="fill-opacity:1;stroke:#000000;stroke-width:3.5101;stroke-dasharray:none;stroke-opacity:1" /><path
           d="m 813.02865,140.83545 17.51541,-0.0526 16.56768,-0.15796 30.36238,40.48902 -7.63447,18.09458 -48.57981,-3.96642 z"
           id="Georgia"
           style="fill-opacity:1;stroke:#000000;stroke-width:3.5101;stroke-dasharray:none;stroke-opacity:1" /><path
           d="M 725.48671,-19.225195 747.302,-17.312189 785.91312,2.7831436 780.2443,10.364964 794.28471,0.09791562 783.05238,38.322924 744.23066,38.094768 736.38558,24.545775 714.7107,7.2409726 Z"
           id="Wisconsin"
           style="fill-opacity:1;stroke:#000000;stroke-width:3.5101;stroke-dasharray:none;stroke-opacity:1" /><path
           d="m 294.90253,-13.117617 17.55051,9.7580826 73.01011,-6.160229 -1.49179,54.5645324 -40.61188,0.0702 -57.51302,-0.05265 z"
           id="Oregon"
           style="fill-opacity:1;stroke:#000000;stroke-width:3.5101;stroke-dasharray:none;stroke-opacity:1" /><path
           d="m 674.27433,64.36788 59.35582,2.825632 31.22236,46.368448 -5.54597,6.61654 -2.65012,6.79204 -5.73902,-6.75694 -60.97047,-0.0526 v -6.82715 l -9.42462,-40.980439 z"
           id="Missouri"
           style="fill-opacity:1;stroke:#000000;stroke-width:3.5101;stroke-dasharray:none;stroke-opacity:1" /><path
           d="m 862.67904,105.98014 20.5341,1.50934 37.48789,-25.86945 8.05568,9.371972 17.2346,28.466928 -79.3283,-0.50897 -27.29104,-0.1755 z"
           id="Virginia"
           style="fill-opacity:1;stroke:#000000;stroke-width:3.5101;stroke-dasharray:none;stroke-opacity:1" /><path
           d="m 756.65642,126.97054 2.65012,-6.79204 80.06543,-1.40404 27.29104,0.1755 -36.11895,21.83284 -17.51541,0.0526 -35.43447,-0.14041 -28.80039,-0.0175 z"
           id="Tennessee"
           style="fill-opacity:1;stroke:#000000;stroke-width:3.5101;stroke-dasharray:none;stroke-opacity:1" /><path
           d="m 697.80956,167.67017 39.27804,0.21061 -6.42349,27.37879 26.06251,-0.0526 2.77298,11.23233 1.68485,17.02399 -60.58436,-10.33725 z"
           id="Louisiana"
           style="fill-opacity:1;stroke:#000000;stroke-width:3.5101;stroke-dasharray:none;stroke-opacity:1" /><path
           d="m 892.81327,41.359163 9.44217,-13.548993 31.43296,-0.772223 20.65695,-21.0255104 26.11516,-2.08851 1.07058,30.9239974 -5.35291,24.044197 24.58832,-1.158334 -32.83705,7.757325 -5.93208,-11.671088 -8.81035,-8.687502 z"
           id="New York"
           style="fill-opacity:1;stroke:#000000;stroke-width:3.5101;stroke-dasharray:none;stroke-opacity:1" /><path
           d="m 842.4082,48.695275 -18.48068,0.491414 -27.5543,-0.877525 7.86263,-40.1204634 20.14798,-14.882832 20.58675,10.407452 -8.79281,18.4806864 17.42766,-2.158713 z m -95.1062,-66.007464 35.73283,-12.390659 -9.23156,8.511996 47.96554,1.053031 20.27083,10.6180576 -38.20745,0.737121 -17.91907,11.565786 z"
           fill-rule="evenodd"
           id="Michigan"
           style="fill-opacity:1;stroke:#000000;stroke-width:3.5101;stroke-dasharray:none;stroke-opacity:1" /><path
           d="m 385.46315,-9.5197634 -1.57954,-41.0155426 13.42614,-0.0175 21.06061,47.0002656 22.18384,16.0938174 25.02703,-1.281187 0.0351,33.767179 -40.89269,0.105303 -40.75228,-0.08775 z"
           id="Idaho"
           style="fill-opacity:1;stroke:#000000;stroke-width:3.5101;stroke-dasharray:none;stroke-opacity:1" /><path
           d="m 821.25984,195.24202 48.57981,3.96642 19.28801,53.77476 -1.79015,18.02437 -12.84697,10.68826 8.30139,-7.24836 -23.00872,-17.42766 -6.93245,-33.17046 -13.53144,-13.8298 -18.6562,4.52803 -33.76718,-9.47727 -1.10568,-9.79319 z"
           id="Florida"
           style="fill-opacity:1;stroke:#000000;stroke-width:3.5101;stroke-dasharray:none;stroke-opacity:1" /><path
           d="m 733.63015,67.193512 16.91869,-19.586369 -6.31818,-9.512375 38.82172,0.228156 3.77336,10.705811 -6.8798,53.371095 -15.09343,11.16213 z"
           id="Illinois"
           style="fill-opacity:1;stroke:#000000;stroke-width:3.5101;stroke-dasharray:none;stroke-opacity:1" /><path
           d="m 397.30975,-50.552856 163.8691,0.0175 -0.12285,54.6522876 -95.40457,-0.05265 -0.0702,7.1957094 -25.02703,1.281187 -22.18384,-16.0938174 z"
           id="Montana"
           style="fill-opacity:1;stroke:#000000;stroke-width:3.5101;stroke-dasharray:none;stroke-opacity:1" /><path
           d="m 654.30185,-50.552856 31.08195,-5.01944 15.5322,11.49558 59.07501,6.985103 -34.5043,17.866418 -10.77601,26.4661676 21.67488,17.3048024 h -71.50077 z"
           id="Minnesota"
           style="fill-opacity:1;stroke:#000000;stroke-width:3.5101;stroke-dasharray:none;stroke-opacity:1" /><path
           d="m 786.82574,49.028735 9.54748,-0.719571 27.5543,0.877525 -0.19306,35.381827 -16.55013,15.497094 -27.23839,2.33422 z"
           id="Indiana"
           style="fill-opacity:1;stroke:#000000;stroke-width:3.5101;stroke-dasharray:none;stroke-opacity:1" /><path
           d="m 981.53109,34.847924 33.41621,-1.71995 12.1098,17.059094 -50.87892,8.705053 z"
           id="Massachusetts"
           style="fill-opacity:1;stroke:#000000;stroke-width:3.5101;stroke-dasharray:none;stroke-opacity:1" /><path
           d="m 588.43479,72.30071 92.08752,0.05265 9.42462,40.98044 -101.37174,0.0702 z"
           id="Kansas"
           style="fill-opacity:1;stroke:#000000;stroke-width:3.5101;stroke-dasharray:none;stroke-opacity:1" /><path
           d="m 343.35948,45.114971 40.61188,-0.0702 40.75228,0.08775 -0.12285,68.183729 -7.96793,27.29104 -73.29093,-54.599634 z"
           id="Nevada"
           style="fill-opacity:1;stroke:#000000;stroke-width:3.5101;stroke-dasharray:none;stroke-opacity:1" /><path
           d="m 980.46051,3.9239266 30.85379,-4.01906698 5.195,30.66074038 -1.562,2.562374 -33.41621,1.71995 z"
           id="Vermont"
           style="fill-opacity:1;stroke:#000000;stroke-width:3.5101;stroke-dasharray:none;stroke-opacity:1" /><path
           d="m 952.16909,75.05614 9.82828,-21.236116 5.93208,11.671088 -8.24874,21.323869 -9.05607,-7.616921 z"
           id="New Jersey"
           style="fill-opacity:1;stroke:#000000;stroke-width:3.5101;stroke-dasharray:none;stroke-opacity:1" /><path
           d="m 866.66301,118.94996 79.3283,0.50897 4.56313,18.07702 -41.06819,18.77904 -15.4971,-13.02247 -46.87741,-2.66768 -16.56768,0.15796 z"
           id="North Carolina"
           style="fill-opacity:1;stroke:#000000;stroke-width:3.5101;stroke-dasharray:none;stroke-opacity:1" /><path
           d="m 424.72364,45.132522 40.89269,-0.105303 v 13.689397 l 27.25594,-0.0351 0.0702,54.652284 -68.34168,-0.0175 z"
           id="Utah"
           style="fill-opacity:1;stroke:#000000;stroke-width:3.5101;stroke-dasharray:none;stroke-opacity:1" /><path
           d="m 561.17885,-50.535306 93.123,-0.0175 10.58296,75.098631 0.1053,13.7947 -103.88146,-6.967552 -0.0527,-27.2559414 z"
           id="Dakotas"
           style="fill-opacity:1;stroke:#000000;stroke-width:3.5101;stroke-dasharray:none;stroke-opacity:1" /><path
           d="m 847.11174,140.62484 46.87741,2.66768 15.4971,13.02247 -32.01213,24.79887 z"
           id="South Carolina"
           style="fill-opacity:1;stroke:#000000;stroke-width:3.5101;stroke-dasharray:none;stroke-opacity:1" /><path
           d="m 737.0876,167.88078 11.70619,-27.20329 28.80039,0.0175 -2.66768,63.16428 -15.4269,2.57993 -2.77298,-11.23233 -26.06251,0.0526 z"
           id="Mississippi"
           style="fill-opacity:1;stroke:#000000;stroke-width:3.5101;stroke-dasharray:none;stroke-opacity:1" /><path
           d="m 492.87227,58.681515 h 68.23638 l 27.34369,-0.01755 -0.0175,13.636745 0.1404,41.10329 -13.11023,-0.0877 -82.52249,0.0175 z"
           id="Colorado"
           style="fill-opacity:1;stroke:#000000;stroke-width:3.5101;stroke-dasharray:none;stroke-opacity:1" /><path
           d="m 575.46496,113.31625 13.11023,0.0877 101.37174,-0.0702 v 6.82715 l 1.80771,39.06743 -71.14977,-10.14419 -4.15947,-28.94079 h -40.98044 z"
           id="Oklahoma"
           style="fill-opacity:1;stroke:#000000;stroke-width:3.5101;stroke-dasharray:none;stroke-opacity:1" /><path
           d="m 561.056,4.1169816 0.0527,27.2559414 v 27.308592 h -68.23638 l -27.25594,0.0351 V 45.027219 l -0.0351,-33.767179 0.0702,-7.1957094 z"
           id="Wyoming"
           style="fill-opacity:1;stroke:#000000;stroke-width:3.5101;stroke-dasharray:none;stroke-opacity:1" /><path
           d="m 854.1495,93.905386 28.32652,-30.274628 v 12.531064 h 14.23346 l -0.1404,7.037754 24.13195,-1.579546 -37.48789,25.86945 -20.5341,-1.50934 z"
           id="West Virginia"
           style="fill-opacity:1;stroke:#000000;stroke-width:3.5101;stroke-dasharray:none;stroke-opacity:1" /><path
           d="m 1011.3143,-0.09514038 25.4482,-29.37955162 19.5337,5.335355 11.4605,30.7133906 -51.2474,23.9915464 z"
           id="Maine"
           style="fill-opacity:1;stroke:#000000;stroke-width:3.5101;stroke-dasharray:none;stroke-opacity:1" /><path
           d="m 209.33627,245.33707 7.64259,-19.08154 40.31101,29.92105 -33.26781,22.67807 z"
           id="Hawaii"
           style="fill-opacity:1;stroke:#000000;stroke-width:3.5101;stroke-dasharray:none;stroke-opacity:1" /><path
           d="m 415.45697,171.77699 1.17589,-31.1697 7.96793,-27.29104 68.34168,0.0175 -0.0702,77.38019 h -27.64205 z"
           id="Arizona"
           style="fill-opacity:1;stroke:#000000;stroke-width:3.5101;stroke-dasharray:none;stroke-opacity:1" /><path
           d="m -2.8091335,45.182411 55.5099995,-4.5 -45.4699995,-16.36 L 87.130866,0.86241062 208.25086,14.142411 v 72.67 l 44.9,4.73 35.82,38.579999 -69.88,-39.549999 -93.78,5.7 7.64,-16.93 -109.419994,53.459999 60.3,-34.559999 -65.12,-12.99 35.63,-32.76 z"
           id="Alaska"
           style="fill-opacity:1;stroke:#000000;stroke-width:3.5101;stroke-linecap:round;stroke-linejoin:round;stroke-dasharray:none;stroke-opacity:1" /></g></g></g></svg>
