<?xml version="1.0" encoding="UTF-8" standalone="no"?>

<svg
   width="147.90967mm"
   height="64.406601mm"
   viewBox="0 0 147.90967 64.406601"
   version="1.1"
   id="svg1"
   xml:space="preserve"
   xmlns="http://www.w3.org/2000/svg"
   xmlns:svg="http://www.w3.org/2000/svg"><defs
     id="defs1"><rect
       x="208.4859"
       y="1042.0199"
       width="64.100105"
       height="15.378374"
       id="rect56" /><linearGradient
       id="swatch40"><stop
         style="stop-color:#9bb8e2;stop-opacity:1;"
         offset="0"
         id="stop40" /></linearGradient><linearGradient
       id="swatch25"><stop
         style="stop-color:#ff4242;stop-opacity:1;"
         offset="0"
         id="stop25" /></linearGradient><rect
       x="208.4859"
       y="1042.0199"
       width="64.100105"
       height="15.378374"
       id="rect56-1" /><rect
       x="208.4859"
       y="1042.0199"
       width="64.100105"
       height="15.378374"
       id="rect56-3" /><rect
       x="208.4859"
       y="1042.0199"
       width="64.100105"
       height="15.378374"
       id="rect56-0" /><rect
       x="208.4859"
       y="1042.0199"
       width="64.100105"
       height="15.378374"
       id="rect56-5" /><rect
       x="208.4859"
       y="1042.0199"
       width="64.100105"
       height="15.378374"
       id="rect56-0-6" /><rect
       x="208.4859"
       y="1042.0199"
       width="64.100105"
       height="15.378374"
       id="rect56-0-6-3" /><rect
       x="208.4859"
       y="1042.0199"
       width="64.100105"
       height="15.378374"
       id="rect56-5-6" /><rect
       x="208.4859"
       y="1042.0199"
       width="64.100105"
       height="15.378374"
       id="rect56-5-5" /><rect
       x="208.4859"
       y="1042.0199"
       width="64.100105"
       height="15.378374"
       id="rect56-5-6-0" /><rect
       x="208.4859"
       y="1042.0199"
       width="64.100105"
       height="15.378374"
       id="rect56-5-6-0-0" /><rect
       x="208.4859"
       y="1042.0199"
       width="64.100105"
       height="15.378374"
       id="rect56-5-6-0-0-3" /><rect
       x="208.4859"
       y="1042.0199"
       width="64.100105"
       height="15.378374"
       id="rect56-5-6-0-0-3-6" /><rect
       x="208.4859"
       y="1042.0199"
       width="64.100105"
       height="15.378374"
       id="rect56-5-6-0-0-3-6-3" /><rect
       x="208.4859"
       y="1042.0199"
       width="64.100105"
       height="15.378374"
       id="rect56-5-6-0-0-3-6-3-73" /><rect
       x="208.4859"
       y="1042.0199"
       width="64.100105"
       height="15.378374"
       id="rect56-5-6-0-0-3-6-3-7-2" /><rect
       x="208.4859"
       y="1042.0199"
       width="64.100105"
       height="15.378374"
       id="rect56-5-6-0-0-3-6-3-73-9" /><rect
       x="208.4859"
       y="1042.0199"
       width="64.100105"
       height="15.378374"
       id="rect56-5-6-0-0-3-6-3-73-7" /><rect
       x="208.4859"
       y="1042.0199"
       width="64.100105"
       height="15.378374"
       id="rect56-5-6-0-0-3-6-3-73-3" /></defs><g
     id="layer1"
     transform="translate(-25.864575,-219.53699)"><g
       style="stroke-linecap:round;stroke-linejoin:round"
       id="g2"
       transform="matrix(0.26458333,0,0,0.26458333,7.9755601,22.249159)"><rect
         style="opacity:0.742459;fill:#87cdde;fill-opacity:1;fill-rule:evenodd;stroke:none;stroke-width:0.691682;stroke-linejoin:bevel;stroke-dasharray:0.691682, 5.53346;stroke-dashoffset:0;stroke-opacity:1;paint-order:stroke fill markers"
         id="rect505"
         width="67.123962"
         height="76.290688"
         x="433.63953"
         y="843.10431" /><rect
         style="opacity:0.763341;fill:#666666;fill-opacity:1;fill-rule:evenodd;stroke:none;stroke-width:0.850156;stroke-linejoin:bevel;stroke-dasharray:0.850156, 6.80125;stroke-dashoffset:0;stroke-opacity:1;paint-order:stroke fill markers"
         id="rect484"
         width="69.646507"
         height="108.82866"
         x="274.54767"
         y="797.74158" /><rect
         style="opacity:0.763341;fill:#666666;fill-opacity:1;fill-rule:evenodd;stroke:none;stroke-width:0.349876;stroke-linecap:round;stroke-linejoin:bevel;stroke-dasharray:0.349876, 2.79901;stroke-dashoffset:0;stroke-opacity:1;paint-order:stroke fill markers"
         id="rect484-2"
         width="35.83157"
         height="35.826927"
         x="497.28772"
         y="865.29547" /><path
         style="fill:none;stroke:#000000;stroke-width:0.377953;stroke-linecap:butt;stroke-linejoin:miter;stroke-dasharray:none;stroke-opacity:1"
         d="m 558.50345,889.34831 5.34028,90.7848"
         id="path96" /><path
         style="fill:none;stroke:#000000;stroke-width:0.377953;stroke-linecap:butt;stroke-linejoin:miter;stroke-dasharray:none;stroke-opacity:1"
         d="m 529.8953,957.52841 19.88593,22.1339"
         id="path95" /><path
         style="fill:none;stroke:#000000;stroke-width:0.377953;stroke-linecap:butt;stroke-linejoin:miter;stroke-dasharray:none;stroke-opacity:1"
         d="m 185.12872,793.81193 38.61219,5.01074"
         id="path94" /><path
         style="fill:none;stroke:#000000;stroke-width:0.377953;stroke-linecap:butt;stroke-linejoin:miter;stroke-dasharray:none;stroke-opacity:1"
         d="m 129.8388,791.50945 40.66486,126.54906"
         id="path92" /><path
         style="fill:none;stroke:#000000;stroke-width:0.377953;stroke-linecap:butt;stroke-linejoin:miter;stroke-dasharray:none;stroke-opacity:1"
         d="m 181.00305,926.04301 68.20988,-32.164"
         id="path93" /><path
         d="m 537.83023,856.84471 26.13,-0.01 2.64,-0.56 -0.8,2.15 3.4,7.42 -1.37,3 -4.96,6.64 1.93,-6.1 -4.73,-3.83 2.3,-6.81 -3.64,1.95 1.45,8.08 -5.73,-4.24 0.65,-1.11 -0.58,-1.01 -4.25,-2.74 -7.45,-2.24 -5.07,3.06 z"
         id="Maryland"
         style="fill:#7137c8;stroke:#000000;stroke-width:0.120945;stroke-linecap:round;stroke-linejoin:round;stroke-dasharray:none;stroke-opacity:1" /><path
         d="m 417.55023,830.06471 h 37.09 l 4.07,7.03 3.28,4.94 -6,2.75 -2.78,7.4 -30.79,-1.46 -4.82,-13.5 z"
         id="Iowa"
         style="fill:#bcd35f;stroke:#000000;stroke-width:0.120945;stroke-linecap:round;stroke-linejoin:round;stroke-dasharray:none;stroke-opacity:1" /><path
         d="m 500.07023,842.85471 9.58,-0.26 7.03,2.45 13.76,-4.19 v 9.49 l -2.46,6.91 -12.24,8.79 -15.77,-4.84 z"
         id="Ohio"
         style="fill:#89a02c;stroke:#1b1b1b;stroke-width:0.120945;stroke-linecap:round;stroke-linejoin:round;stroke-dasharray:none;stroke-opacity:1" /><path
         d="m 530.44023,840.85471 5.36,-2.07 0.01,1.92 31.32,0.04 4.57,4.51 -3.52,4.54 3.33,3.98 -4.91,2.5 -2.64,0.56 -26.13,0.01 h -7.39 v -6.5 z"
         id="Pennsylvania"
         style="fill:#c6afe9;stroke:#000000;stroke-width:0.120945;stroke-linecap:round;stroke-linejoin:round;stroke-dasharray:none;stroke-opacity:1" /><path
         d="m 363.70023,833.60471 39.35,0.02 14.55,3.6 4.82,13.5 3.24,4.14 -47.78,-0.02 v -7.08 l -14.18,0.01 z"
         id="Nebraska"
         style="fill:#a0892c;stroke:#000000;stroke-width:0.120945;stroke-linecap:round;stroke-linejoin:round;stroke-dasharray:none;stroke-opacity:1" /><path
         d="m 271.74023,791.10471 0.83,21.29 -37.88,3.19 -9.11,-5.06 -3.77,-0.06 -4.58,-15.01 14.7,3.29 -0.75,-7.66 z"
         id="Washington"
         style="fill:#5f8dd3;stroke:#000000;stroke-width:0.120945;stroke-linecap:round;stroke-linejoin:round;stroke-dasharray:none;stroke-opacity:1" /><path
         d="m 549.25144,978.60973 20.66993,0.61 -5.89076,4.8102 -14.09946,0.052 z"
         id="Puerto Rico"
         style="fill:#deaa87;stroke:#000000;stroke-width:0.120945;stroke-linecap:round;stroke-linejoin:round;stroke-dasharray:none;stroke-opacity:1" /><path
         d="m 476.02023,890.32469 18.38,0.08 5.06,19.28 -0.79,8.94 -18.39,0.03 0.57,5.08 -2.66,0.29 -0.81,-3.16 -2.74,2.24 z"
         id="Alabama"
         style="fill:#d38d5f;stroke:#1b1b1b;stroke-width:0.120945;stroke-linecap:round;stroke-linejoin:round;stroke-dasharray:none;stroke-opacity:1" /><path
         d="m 430.55023,879.66471 31.63,0.03 -1.53,3.54 1.8698,-0.23954 -2.82276,6.65902 -6.67897,8.0005 -0.8667,6.78 -17.53137,-0.11 v -3.77 l -3.14,-0.61 z"
         id="Arkansas"
         style="fill:#d35f5f;stroke:#000000;stroke-width:0.120945;stroke-linecap:round;stroke-linejoin:round;stroke-dasharray:none;stroke-opacity:1" /><path
         d="m 328.33023,876.12471 h 42.82 l -0.01,3.54 -0.43,31.87998 -24.55,1.54 h -11.9 v 3.19 h -5.96 z"
         id="New Mexico"
         style="fill:#e9afaf;stroke:#000000;stroke-width:0.120945;stroke-linecap:round;stroke-linejoin:round;stroke-dasharray:none;stroke-opacity:1" /><path
         d="m 371.14023,879.66471 h 21.27 l 2.16,15.00998 18.04,4.67 13.63,-1.7 5.24,2.3 3.14,0.61 v 3.77 l 0.01,7.28 3.59,5.71 -2.14,10.6 -22.43,12.62 -2.97,14.65 -11.76,-3.94 -3.17,-8.38 -13.26,-15.29 h -9.04 l -4.28,5.35 -8.92,-4.91 -2.73,-6.58 -11.36,-8.35 24.55,-1.54 z"
         id="Texas"
         style="fill:#f4d7d7;stroke:#000000;stroke-width:0.120945;stroke-linecap:round;stroke-linejoin:round;stroke-dasharray:none;stroke-opacity:1" /><path
         d="m 220.88023,840.70471 29.84,0.03 -0.01,21.22 35.86559,24.00118 -1.91101,9.8494 3.46542,10.6494 -17.04,1.31 -2.27,-5.2 -7.61,-5.38 -14.9,-3.73 -0.1,-4.04 -12.48,-14.61998 0.95,-6.12 -5.3,0.34 -5.11,-6.74 -4.8,-10.51 z"
         id="California"
         style="fill:#afc6e9;fill-opacity:1;fill-rule:evenodd;stroke:#000000;stroke-width:0.120945;stroke-linecap:round;stroke-linejoin:round;stroke-dasharray:none;stroke-dashoffset:0;stroke-opacity:1" /><path
         d="m 470.86966,877.88584 4.30661,-1.30679 3.78094,-4.74076 13.44321,-1.64924 7.56981,-8.98434 15.77,4.84 4.43,6.27 -12.32157,5.2506 -41.31843,2.1194 z"
         id="Kentucky"
         style="fill:#c6afe9;stroke:#1b1b1b;stroke-width:0.120945;stroke-linecap:round;stroke-linejoin:round;stroke-dasharray:none;stroke-opacity:1" /><path
         d="m 494.40023,890.40469 9.1,-0.03 4.00232,2.29207 2.95768,-0.12207 17.38,18.76 -3.95,9.38 -3.54,-0.83 -1.42,3.29 -19.28,-2.47 -0.98,-2.05 0.79,-8.94 z"
         id="Georgia"
         style="fill:#deaa87;stroke:#1b1b1b;stroke-width:0.120945;stroke-linecap:round;stroke-linejoin:round;stroke-dasharray:none;stroke-opacity:1" /><path
         d="m 448.99023,807.35471 7.73,-2.1 -0.22,2.91 3.8,0.18 16.32,4.56 3.72,5.86 -2.94,3.94 7.28,-5.32 -5.37,10.04 -0.46,9.79 -20.14,-0.12 -4.07,-7.03 -11.25,-8.98 -0.45,-6.71 z"
         id="Wisconsin"
         style="fill:#abc837;stroke:#000000;stroke-width:0.120945;stroke-linecap:round;stroke-linejoin:round;stroke-dasharray:none;stroke-opacity:1" /><path
         d="m 225.58023,810.52471 9.11,5.06 37.88,-3.19 3.2,2.69 -5.52,8.67 1.54,16.94 -21.07,0.04 -29.84,-0.03 -2.42,-5.96 3.63,-23.79 z"
         id="Oregon"
         style="fill:#87aade;stroke:#000000;stroke-width:0.120945;stroke-linecap:round;stroke-linejoin:round;stroke-dasharray:none;stroke-opacity:1" /><path
         d="m 422.42023,850.72471 30.79,1.46 0.37,4.6 2.31127,5.46983 3.73232,1.02803 -1.25429,4.1466 6.28198,7.34869 -0.2545,4.41457 -1.5341,4.25846 -2.21268,-0.21618 1.53,-3.54 -31.63,-0.03 v -3.53 l 0.18,-15.28 -5.07,-5.99 z"
         id="Missouri"
         style="fill:#d3bc5f;stroke:#000000;stroke-width:0.120945;stroke-linecap:round;stroke-linejoin:round;stroke-dasharray:none;stroke-opacity:1" /><path
         d="m 520.97805,873.12253 1.24218,1.56218 8.6,-1.58 5.78,-8.26 2.49,1.24 6.74,-7.43 4.44,1.02 4.25,2.74 0.58,1.01 -0.65,1.11 -0.96,2.14 7.29,3.15 -1.11,4.7 3.73,4.78 -41.17,-0.26 -3.06362,-1.45964 z"
         id="Virginia"
         style="fill:#aa87de;stroke:#000000;stroke-width:0.120945;stroke-linecap:round;stroke-linejoin:round;stroke-dasharray:none;stroke-opacity:1" /><path
         d="m 465.16023,883.20471 1.37,-3.52 40.39217,-2.00362 -0.005,1.44365 -3.41753,11.24995 -9.1,0.03 -18.38,-0.08 h -14.94 z"
         id="Tennessee"
         style="fill:#c87137;stroke:#000000;stroke-width:0.120945;stroke-linecap:round;stroke-linejoin:round;stroke-dasharray:none;stroke-opacity:1" /><path
         d="m 434.62023,904.32469 17.52134,0.11 1.2805,3.3527 -1.75179,10.8473 13.52,-0.02 1.45,5.82 -2.33,1.62 4.74,-1.39 -2.96,3.81 4.16,3.15 -2.74,1.65 -3.13,-2.73 -7.26,1.86 -5.66,-4.89 -1.1,1.93 -14.28,-1.53 2.14,-10.6 -3.59,-5.71 z"
         id="Louisiana"
         style="fill:#e9afaf;stroke:#000000;stroke-width:0.120945;stroke-linecap:round;stroke-linejoin:round;stroke-dasharray:none;stroke-opacity:1" /><path
         d="m 535.80023,838.78471 6.46,-3.7 -1.56,-3.33 16.31,-0.4 10.72,-10.9 13.55,-1.09 0.56,16.05 -1.58,4.93 -1.2,7.54 12.76,-0.6 -17.04,4.02 2.6,-3.5 -5.68,-2.55 -4.57,-4.51 -31.32,-0.04 z"
         id="New York"
         style="fill:#aaeeff;stroke:#000000;stroke-width:0.120945;stroke-linecap:round;stroke-linejoin:round;stroke-dasharray:none;stroke-opacity:1" /><path
         d="m 272.57023,812.39471 -0.83,-21.29 6.97,-0.01 2.4,11.22 5.61248,7.52949 0.84803,7.31581 2.69342,4.91299 6.7471,6.29487 0.1409,5.45813 4.66919,3.56658 5.02113,3.87411 -13.91225,-0.52198 -21.14,-0.05 -1.54,-16.94 5.52,-8.67 z"
         id="Idaho"
         style="fill:#afc6e9;stroke:#000000;stroke-width:0.120945;stroke-linecap:round;stroke-linejoin:round;stroke-dasharray:none;stroke-opacity:1" /><path
         d="m 498.67023,918.62469 0.98,2.05 19.28,2.47 1.42,-3.29 3.54,0.83 10,27.91 -0.93,9.34 -6.66,5.55 4.31,-3.76 -4.14,0.58 -7.8,-9.62 -3.99,-7.47 2.09,-1.98 -2.82,-0.31 1.12,-7.45 -7.02,-7.18 -3.75,-1.18 -5.93,3.53 -8.34,-5.36 -9.18,0.45 -0.57,-5.08 z"
         id="Florida"
         style="fill:#a05a2c;stroke:#000000;stroke-width:0.120945;stroke-linecap:round;stroke-linejoin:round;stroke-dasharray:none;stroke-opacity:1" /><path
         d="m 454.59741,852.18471 1.39282,-7.4 6,-2.75 -3.28,-4.94 20.14,0.12 1.96,5.55 0.18,20.9 -3.75,6.8 -3.18,5.17 -5.93892,0.75507 -7.43108,-9.02507 1.77,-4.34 -3.28107,-1.22142 -3.88321,-5.45664 z"
         id="Illinois"
         style="fill:#dde9af;stroke:#000000;stroke-width:0.120945;stroke-linecap:round;stroke-linejoin:round;stroke-dasharray:none;stroke-opacity:1" /><path
         d="m 278.71023,791.09471 85.02,0.01 0.03,21.64 -0.09,6.72 -49.5,-0.03 -0.03,3.73 -2.39,-1.99 -10.6,2.66 -6.55,-8.66 -2.20068,-0.77402 -1.43932,-6.62598 -9.85,-5.46 z"
         id="Montana"
         style="fill:#e9afdd;stroke:#000000;stroke-width:0.120945;stroke-linecap:round;stroke-linejoin:round;stroke-dasharray:none;stroke-opacity:1" /><path
         d="m 412.05023,791.09471 14.7,0.02 1.43,-2.62 1.83,4.1 6.23,1.86 30.65,3.63 -17.9,9.27 -6.05,7.02 0.45,6.71 11.25,8.98 h -37.09 l -0.79,-17.25 z"
         id="Minnesota"
         style="fill:#89a02c;stroke:#000000;stroke-width:0.120945;stroke-linecap:round;stroke-linejoin:round;stroke-dasharray:none;stroke-opacity:1" /><path
         d="m 480.81023,842.76471 4.95,-0.37 14.31,0.46 -0.1,18.35 -8.6,8.04 -14.13,1.22 3.75,-6.8 z"
         id="Indiana"
         style="fill:#cdde87;stroke:#1b1b1b;stroke-width:0.120945;stroke-linecap:round;stroke-linejoin:round;stroke-dasharray:none;stroke-opacity:1" /><path
         d="m 581.84023,835.41471 5.71,0.13 11.63,-1.03 -1.07,4.28 3.73,3.65 2.78,-2.21 0.84,3.14 -8.43,0.88 -5.24,1.26 -12.73,2.37 1.2,-7.54 z"
         id="Massachusetts"
         style="fill:#00ccff;stroke:#000000;stroke-width:0.120945;stroke-linecap:round;stroke-linejoin:round;stroke-dasharray:none;stroke-opacity:1" /><path
         d="m 377.88023,854.84471 47.78,0.02 5.07,5.99 -0.18,15.28 -52.6,0.04 z"
         id="Kansas"
         style="fill:#decd87;stroke:#000000;stroke-width:0.120945;stroke-linecap:round;stroke-linejoin:round;stroke-dasharray:none;stroke-opacity:1" /><path
         d="m 250.72023,840.73471 21.07,-0.04 21.14,0.05 -0.06,35.38 -0.72,6.91 -4.14,-0.57 -1.84023,5.11448 -35.45977,-25.62448 z"
         id="Nevada"
         style="fill:#d7e3f4;stroke:#000000;stroke-width:0.120945;stroke-linecap:round;stroke-linejoin:round;stroke-dasharray:none;stroke-opacity:1" /><path
         d="m 581.28023,819.36471 13.05,-0.02 2.96,-2.07 2.69,15.91 -0.8,1.33 -11.63,1.03 -5.71,-0.13 z"
         id="Vermont"
         style="fill:#55ddff;stroke:#000000;stroke-width:0.120945;stroke-linecap:round;stroke-linejoin:round;stroke-dasharray:none;stroke-opacity:1" /><path
         d="m 566.60023,856.27471 4.91,-2.5 -3.33,-3.98 3.52,-4.54 5.68,2.55 -2.6,3.5 1.13,5.29 -5.41,5.78 -4.7,-3.95 z"
         id="New Jersey"
         style="fill:#8d5fd3;stroke:#000000;stroke-width:0.120945;stroke-linecap:round;stroke-linejoin:round;stroke-dasharray:none;stroke-opacity:1" /><path
         d="m 522.23023,879.04471 41.17,0.26 2.36,9.38998 -13.67,5.34 -3.52,4.38 -4.12,0.02 -8.03,-6.76 -7.95,-0.13 -1.74,-2.31 -14.64,1.05 2.1954,-1.63776 z"
         id="North Carolina"
         style="fill:#deaa87;stroke:#1b1b1b;stroke-width:0.120945;stroke-linecap:round;stroke-linejoin:round;stroke-dasharray:none;stroke-opacity:1" /><path
         d="m 292.93023,840.74471 15.13397,-0.0797 6.08603,7.12967 18.48352,14.48173 -4.30352,13.84827 h -35.46 z"
         id="Utah"
         style="fill:#87aade;stroke:#000000;stroke-width:0.120945;stroke-linecap:round;stroke-linejoin:round;stroke-dasharray:none;stroke-opacity:1" /><path
         d="m 363.73023,791.10471 48.32,-0.01 4.71,21.72 0.79,17.25 0.05,7.16 -14.55,-3.6 -39.35,-0.02 -0.03,-14.14 0.09,-6.72 z"
         id="Dakotas"
         style="fill:#de87cd;stroke:#000000;stroke-width:0.120945;stroke-linecap:round;stroke-linejoin:round;stroke-dasharray:none;stroke-opacity:1" /><path
         d="m 512.09023,890.28469 14.64,-1.05 1.74,2.31 7.95,0.13 8.03,6.76 -16.61,12.87 -17.38,-18.76 z"
         id="South Carolina"
         style="fill:#c87137;stroke:#1b1b1b;stroke-width:0.120945;stroke-linecap:round;stroke-linejoin:round;stroke-dasharray:none;stroke-opacity:1" /><path
         d="m 455.01023,904.43469 0.54,-6.78 5.53,-7.33 h 14.94 l -1.38,32.78 -8,1.33 -1.45,-5.82 -13.52,0.02 5.07,-9.51 z"
         id="Mississippi"
         style="fill:#deaa87;stroke:#000000;stroke-width:0.120945;stroke-linecap:round;stroke-linejoin:round;stroke-dasharray:none;stroke-opacity:1" /><path
         d="m 328.30023,847.77471 h 35.4 l 14.18,-0.01 v 7.08 l 0.07,21.33 -6.8,-0.05 h -42.82 z"
         id="Colorado"
         style="fill:#c8ab37;stroke:#000000;stroke-width:0.120945;stroke-linecap:round;stroke-linejoin:round;stroke-dasharray:none;stroke-opacity:1" /><path
         d="m 371.15023,876.12471 6.8,0.05 52.6,-0.04 v 3.53 l 0.93,20.27998 -5.24,-2.3 -13.63,1.7 -18.04,-4.67 -2.16,-15.00998 h -21.27 z"
         id="Oklahoma"
         style="fill:#de8787;stroke:#000000;stroke-width:0.120945;stroke-linecap:round;stroke-linejoin:round;stroke-dasharray:none;stroke-opacity:1" /><path
         d="m 363.67023,819.46471 0.03,14.14 v 14.17 h -35.4 l -3.36635,-2.44495 -2.42795,-11.58055 -8.3657,-10.5845 0.03,-3.73 z"
         id="Wyoming"
         style="fill:#d35fbc;stroke:#000000;stroke-width:0.120945;stroke-linecap:round;stroke-linejoin:round;stroke-dasharray:none;stroke-opacity:1" /><path
         d="m 515.74023,866.04471 12.24,-8.79 2.46,-6.91 v 6.5 h 7.39 l -0.08,3.65 5.07,-3.06 7.45,2.24 -4.44,-1.02 -6.74,7.43 -2.49,-1.24 -5.78,8.26 -8.6,1.58 -2.05,-2.37 z"
         id="West Virginia"
         style="fill:#e3d7f4;stroke:#000000;stroke-width:0.120945;stroke-linecap:round;stroke-linejoin:round;stroke-dasharray:none;stroke-opacity:1" /><path
         d="m 597.29023,817.27471 13.2,-15.24 10.14,2.77 -0.1,9.84 6.05,6.09 -11.81,5.72 -3,-1.58 -11.79,8.31 z"
         id="Maine"
         style="fill:#00aad4;stroke:#000000;stroke-width:0.120945;stroke-linecap:round;stroke-linejoin:round;stroke-dasharray:none;stroke-opacity:1" /><path
         d="m 173.91264,926.63989 1.77598,-4.4146 9.32389,6.9263 -7.70014,5.2392 z m -5.83536,-10.25 6.4189,1.5857 -3.52659,1.4969 z m -27.71797,-10.288 4.41458,-0.5201 -1.37004,2.2834 z"
         fill-rule="evenodd"
         id="Hawaii"
         style="fill:#5f8dd3;stroke:#000000;stroke-width:0.120945;stroke-linecap:round;stroke-linejoin:round;stroke-dasharray:none;stroke-opacity:1" /><path
         d="m 293.00014,906.45469 -0.75991,-10.92 -3.5,-5.25 5.89849,-3.7617 0.89339,-8.08764 1.65713,-2.36401 31.14099,0.0534 -0.03,40.15005 h -14.35 l -21.62009,-7.2831 z"
         id="Arizona"
         style="fill:#5f8dd3;stroke:#000000;stroke-width:0.120945;stroke-linecap:round;stroke-linejoin:round;stroke-dasharray:none;stroke-opacity:1" /><g
         id="RiskMapV2-2-0-3"
         transform="matrix(0.50431718,0,0,0.5432964,31.193015,745.17427)"
         style="stroke:#000000;stroke-width:0.231056;stroke-linecap:round;stroke-linejoin:round;stroke-dasharray:none;stroke-opacity:1"><path
           d="m 314.6,110.33 6.86,-2.15 6.64,10.8 z m -3.25,-6.68 12.63,1.87 -12.05,5.58 z m -15.37,-8.3 11.42,-0.01 1.96,13.25 z m -129.07,4.74 15.73,-8.88 5.26,2.53 -15.58,11.15 z M 72.33,41.36 98.75,34.81 122.88,37.26 81.47,22.36 154.24,1 l 38.21,6.92 72.07,5.17 0.01,66.17 13.57,-0.36 11.05,10.28 16.26,-5.6 24.06,21.93 12.28,3.44 -3.72,9.75 L 313.1,94.19 295,94.05 274.4,82.69 l -45.2,-4 -40.2,9.19 1.78,-11.48 12,-2.13 -6.82,-1.81 -24.39,14.02 -0.71,8.18 -29.82,15.15 -44.72,11.34 43.13,-17.12 11.78,-14.36 -33.72,2.02 -4.39,-11.44 -11.04,2.57 -10.15,-4.98 -5.18,-9.26 11.7,-9.84 23.04,-2.03 2.89,-8.7 -38.64,0.95 z"
           fill-rule="evenodd"
           id="Alaska"
           style="fill:#d7e3f4;stroke:#000000;stroke-width:0.231056;stroke-dasharray:none;stroke-opacity:1" /></g><path
         d="m 509.65023,842.59471 -9.58,0.26 -14.31,-0.46 4.14,-5.52 -0.05,-15.3 10.45,-7.72 10.68,5.4 -4.56,9.59 6.95,-2.81 2.09,1.69 0.87,8.46 z m -49.35,-34.25 18.55,-6.43 -4.8,4.42 11.81,2.84 13.08,-2.29 -0.03,2.1 6.03,-0.29 4.52,3.69 -19.82,0.38 -9.3,6 -3.72,-5.86 z"
         fill-rule="evenodd"
         id="Michigan"
         style="fill:#677821;stroke:#1b1b1b;stroke-width:0.120945;stroke-linecap:round;stroke-linejoin:round;stroke-dasharray:none;stroke-opacity:1" /><text
         xml:space="preserve"
         id="LabelCalifornia"
         style="font-style:normal;font-variant:normal;font-weight:normal;font-stretch:normal;font-size:4px;line-height:1.25;font-family:Palatino;-inkscape-font-specification:'Palatino, Normal';font-variant-ligatures:normal;font-variant-caps:normal;font-variant-numeric:normal;font-variant-east-asian:normal;letter-spacing:2px;white-space:pre;shape-inside:url(#rect56);display:inline;fill:#333333"
         transform="translate(15.925123,-163.15148)"><tspan
           x="208.48633"
           y="1045.5111"
           id="tspan1">CALIFORNIA</tspan></text><text
         xml:space="preserve"
         transform="translate(46.908862,-189.87217)"
         id="LabelNevada"
         style="font-style:normal;font-variant:normal;font-weight:normal;font-stretch:normal;font-size:4px;line-height:1.25;font-family:Palatino;-inkscape-font-specification:'Palatino, Normal';font-variant-ligatures:normal;font-variant-caps:normal;font-variant-numeric:normal;font-variant-east-asian:normal;letter-spacing:2px;white-space:pre;shape-inside:url(#rect56-1);display:inline;stroke-linecap:round;stroke-linejoin:round"><tspan
           x="208.48633"
           y="1045.5111"
           id="tspan2">NEVADA</tspan></text><text
         xml:space="preserve"
         transform="translate(16.714061,-218.78766)"
         id="LabelOregon"
         style="font-style:normal;font-variant:normal;font-weight:normal;font-stretch:normal;font-size:4px;line-height:1.25;font-family:Palatino;-inkscape-font-specification:'Palatino, Normal';font-variant-ligatures:normal;font-variant-caps:normal;font-variant-numeric:normal;font-variant-east-asian:normal;letter-spacing:2px;white-space:pre;shape-inside:url(#rect56-3);display:inline;stroke-linecap:round;stroke-linejoin:round"><tspan
           x="208.48633"
           y="1045.5111"
           id="tspan3">OREGON</tspan></text><text
         xml:space="preserve"
         transform="translate(13.945514,-240.56338)"
         id="LabelWashington"
         style="font-style:normal;font-variant:normal;font-weight:normal;font-stretch:normal;font-size:4px;line-height:1.25;font-family:Palatino;-inkscape-font-specification:'Palatino, Normal';font-variant-ligatures:normal;font-variant-caps:normal;font-variant-numeric:normal;font-variant-east-asian:normal;letter-spacing:2px;white-space:pre;shape-inside:url(#rect56-0);display:inline;stroke-linecap:round;stroke-linejoin:round"><tspan
           x="208.48633"
           y="1045.5111"
           id="tspan4">WASHINGTON</tspan></text><text
         xml:space="preserve"
         transform="translate(-91.076235,-274.91872)"
         id="LabelAlaska"
         style="font-style:normal;font-variant:normal;font-weight:normal;font-stretch:normal;font-size:4px;line-height:1.25;font-family:Palatino;-inkscape-font-specification:'Palatino, Normal';font-variant-ligatures:normal;font-variant-caps:normal;font-variant-numeric:normal;font-variant-east-asian:normal;letter-spacing:2px;white-space:pre;shape-inside:url(#rect56-0-6);display:inline;stroke-linecap:round;stroke-linejoin:round"><tspan
           x="208.48633"
           y="1045.5111"
           id="tspan5">ALASKA</tspan></text><text
         xml:space="preserve"
         transform="translate(-65.372712,-122.07351)"
         id="LabelHawaii"
         style="font-style:normal;font-variant:normal;font-weight:normal;font-stretch:normal;font-size:4px;line-height:1.25;font-family:Palatino;-inkscape-font-specification:'Palatino, Normal';font-variant-ligatures:normal;font-variant-caps:normal;font-variant-numeric:normal;font-variant-east-asian:normal;letter-spacing:2px;white-space:pre;shape-inside:url(#rect56-0-6-3);display:inline;stroke-linecap:round;stroke-linejoin:round"><tspan
           x="208.48633"
           y="1045.5111"
           id="tspan6">HAWAII</tspan></text><text
         xml:space="preserve"
         transform="translate(62.190487,-211.01827)"
         id="LabelIdaho"
         style="font-style:normal;font-variant:normal;font-weight:normal;font-stretch:normal;font-size:4px;line-height:1.25;font-family:Palatino;-inkscape-font-specification:'Palatino, Normal';font-variant-ligatures:normal;font-variant-caps:normal;font-variant-numeric:normal;font-variant-east-asian:normal;letter-spacing:2px;white-space:pre;shape-inside:url(#rect56-5);display:inline;stroke-linecap:round;stroke-linejoin:round"><tspan
           x="208.48633"
           y="1045.5111"
           id="tspan7">IDAHO</tspan></text><text
         xml:space="preserve"
         transform="translate(95.774607,-239.11305)"
         id="LabelMontana"
         style="font-style:normal;font-variant:normal;font-weight:normal;font-stretch:normal;font-size:4px;line-height:1.25;font-family:Palatino;-inkscape-font-specification:'Palatino, Normal';font-variant-ligatures:normal;font-variant-caps:normal;font-variant-numeric:normal;font-variant-east-asian:normal;letter-spacing:2px;white-space:pre;shape-inside:url(#rect56-5-6);display:inline;stroke-linecap:round;stroke-linejoin:round"><tspan
           x="208.48633"
           y="1045.5111"
           id="tspan8">MONTANA</tspan></text><text
         xml:space="preserve"
         transform="translate(162.7642,-232.3719)"
         id="LabelDakotas"
         style="font-style:normal;font-variant:normal;font-weight:normal;font-stretch:normal;font-size:4px;line-height:1.25;font-family:Palatino;-inkscape-font-specification:'Palatino, Normal';font-variant-ligatures:normal;font-variant-caps:normal;font-variant-numeric:normal;font-variant-east-asian:normal;letter-spacing:2px;white-space:pre;shape-inside:url(#rect56-5-6-0);display:inline;stroke-linecap:round;stroke-linejoin:round"><tspan
           x="208.48633"
           y="1045.5111"
           id="tspan9">DAKOTAS</tspan></text><text
         xml:space="preserve"
         transform="translate(122.57768,-182.87932)"
         id="LabelColorado"
         style="font-style:normal;font-variant:normal;font-weight:normal;font-stretch:normal;font-size:4px;line-height:1.25;font-family:Palatino;-inkscape-font-specification:'Palatino, Normal';font-variant-ligatures:normal;font-variant-caps:normal;font-variant-numeric:normal;font-variant-east-asian:normal;letter-spacing:2px;white-space:pre;shape-inside:url(#rect56-5-6-0-0);display:inline;stroke-linecap:round;stroke-linejoin:round"><tspan
           x="208.48633"
           y="1045.5111"
           id="tspan10">COLORADO</tspan></text><text
         xml:space="preserve"
         transform="translate(88.930552,-182.0725)"
         id="LabelUtah"
         style="font-style:normal;font-variant:normal;font-weight:normal;font-stretch:normal;font-size:4px;line-height:1.25;font-family:Palatino;-inkscape-font-specification:'Palatino, Normal';font-variant-ligatures:normal;font-variant-caps:normal;font-variant-numeric:normal;font-variant-east-asian:normal;letter-spacing:2px;white-space:pre;shape-inside:url(#rect56-5-6-0-0-3);display:inline;stroke-linecap:round;stroke-linejoin:round"><tspan
           x="208.48633"
           y="1045.5111"
           id="tspan11">UTAH</tspan></text><text
         xml:space="preserve"
         transform="translate(84.129699,-150.60476)"
         id="LabelArizona"
         style="font-style:normal;font-variant:normal;font-weight:normal;font-stretch:normal;font-size:4px;line-height:1.25;font-family:Palatino;-inkscape-font-specification:'Palatino, Normal';font-variant-ligatures:normal;font-variant-caps:normal;font-variant-numeric:normal;font-variant-east-asian:normal;letter-spacing:2px;white-space:pre;shape-inside:url(#rect56-5-6-0-0-3-6);display:inline;stroke-linecap:round;stroke-linejoin:round"><tspan
           x="208.48633"
           y="1045.5111"
           id="tspan12">ARIZONA</tspan></text><text
         xml:space="preserve"
         transform="translate(127.77186,-153.27106)"
         id="LabelNewMexico"
         style="font-style:normal;font-variant:normal;font-weight:normal;font-stretch:normal;font-size:4px;line-height:1.25;font-family:Palatino;-inkscape-font-specification:'Palatino, Normal';font-variant-ligatures:normal;font-variant-caps:normal;font-variant-numeric:normal;font-variant-east-asian:normal;letter-spacing:2px;white-space:pre;shape-inside:url(#rect56-5-6-0-0-3-6-3);display:inline;stroke-linecap:round;stroke-linejoin:round"><tspan
           x="208.48633"
           y="1045.5111"
           id="tspan13">NEW
</tspan><tspan
           x="208.48633"
           y="1050.5111"
           id="tspan14">MEXICO</tspan></text><text
         xml:space="preserve"
         transform="translate(333.03592,-56.486475)"
         id="LabelPuertoRico"
         style="font-style:normal;font-variant:normal;font-weight:normal;font-stretch:normal;font-size:4px;line-height:1.25;font-family:Palatino;-inkscape-font-specification:'Palatino, Normal';font-variant-ligatures:normal;font-variant-caps:normal;font-variant-numeric:normal;font-variant-east-asian:normal;letter-spacing:2px;white-space:pre;shape-inside:url(#rect56-5-6-0-0-3-6-3-7-2);display:inline;stroke-linecap:round;stroke-linejoin:round"><tspan
           x="208.48633"
           y="1045.5111"
           id="tspan15">PUERTO RICO</tspan></text><text
         xml:space="preserve"
         transform="translate(178.14969,-157.62142)"
         id="LabelOklahoma"
         style="font-style:normal;font-variant:normal;font-weight:normal;font-stretch:normal;font-size:4px;line-height:1.25;font-family:Palatino;-inkscape-font-specification:'Palatino, Normal';font-variant-ligatures:normal;font-variant-caps:normal;font-variant-numeric:normal;font-variant-east-asian:normal;letter-spacing:2px;white-space:pre;shape-inside:url(#rect56-5-6-0-0-3-6-3-73);display:inline;stroke-linecap:round;stroke-linejoin:round"><tspan
           x="208.48633"
           y="1045.5111"
           id="tspan16">OKLAHOMA</tspan></text><text
         xml:space="preserve"
         transform="translate(177.29772,-179.70416)"
         id="LabelKansas"
         style="font-style:normal;font-variant:normal;font-weight:normal;font-stretch:normal;font-size:4px;line-height:1.25;font-family:Palatino;-inkscape-font-specification:'Palatino, Normal';font-variant-ligatures:normal;font-variant-caps:normal;font-variant-numeric:normal;font-variant-east-asian:normal;letter-spacing:2px;white-space:pre;shape-inside:url(#rect56-5-6-0-0-3-6-3-73-9);display:inline;stroke-linecap:round;stroke-linejoin:round"><tspan
           x="208.48633"
           y="1045.5111"
           id="tspan17">KANSAS</tspan></text><text
         xml:space="preserve"
         transform="translate(113.86715,-211.30443)"
         id="LabelWyoming"
         style="font-style:normal;font-variant:normal;font-weight:normal;font-stretch:normal;font-size:4px;line-height:1.25;font-family:Palatino;-inkscape-font-specification:'Palatino, Normal';font-variant-ligatures:normal;font-variant-caps:normal;font-variant-numeric:normal;font-variant-east-asian:normal;letter-spacing:2px;white-space:pre;shape-inside:url(#rect56-5-5);display:inline;stroke-linecap:round;stroke-linejoin:round"><tspan
           x="208.48633"
           y="1045.5111"
           id="tspan18">WYOMING</tspan></text><text
         xml:space="preserve"
         style="font-style:normal;font-variant:normal;font-weight:normal;font-stretch:normal;font-size:4px;line-height:1.25;font-family:Palatino;-inkscape-font-specification:'Palatino, Normal';font-variant-ligatures:normal;font-variant-caps:normal;font-variant-numeric:normal;font-variant-east-asian:normal;letter-spacing:2px"
         x="374.91629"
         y="845.19238"
         id="LabelNebraska"><tspan
           id="tspan58"
           x="374.91629"
           y="845.19238">NEBRASKA</tspan></text><text
         xml:space="preserve"
         style="font-style:normal;font-variant:normal;font-weight:normal;font-stretch:normal;font-size:4px;line-height:1.25;font-family:Palatino;-inkscape-font-specification:'Palatino, Normal';font-variant-ligatures:normal;font-variant-caps:normal;font-variant-numeric:normal;font-variant-east-asian:normal;letter-spacing:2px"
         x="429.86188"
         y="841.46649"
         id="LabelIowa"><tspan
           id="tspan59"
           x="429.86188"
           y="841.46649">IOWA</tspan></text><text
         xml:space="preserve"
         style="font-style:normal;font-variant:normal;font-weight:normal;font-stretch:normal;font-size:4px;line-height:1.25;font-family:Palatino;-inkscape-font-specification:'Palatino, Normal';font-variant-ligatures:normal;font-variant-caps:normal;font-variant-numeric:normal;font-variant-east-asian:normal;letter-spacing:2px"
         x="415.99582"
         y="802.35114"
         id="LabelMinnesota"><tspan
           id="tspan60"
           x="415.99582"
           y="802.35114">MINNESOTA</tspan></text><text
         xml:space="preserve"
         style="font-style:normal;font-variant:normal;font-weight:normal;font-stretch:normal;font-size:4px;line-height:1.25;font-family:Palatino;-inkscape-font-specification:'Palatino, Normal';font-variant-ligatures:normal;font-variant-caps:normal;font-variant-numeric:normal;font-variant-east-asian:normal;letter-spacing:2px"
         x="444.16516"
         y="819.17072"
         id="LabelWisconsin"><tspan
           x="444.16516"
           y="819.17072"
           id="tspan90">WISCONS.</tspan></text><text
         xml:space="preserve"
         style="font-style:normal;font-variant:normal;font-weight:normal;font-stretch:normal;font-size:4px;line-height:1.25;font-family:Palatino;-inkscape-font-specification:'Palatino, Normal';font-variant-ligatures:normal;font-variant-caps:normal;font-variant-numeric:normal;font-variant-east-asian:normal;letter-spacing:2px"
         x="507.25543"
         y="816.2348"
         id="LabelMichigan"><tspan
           id="tspan62"
           x="507.25543"
           y="816.2348">MICHIGAN</tspan></text><text
         xml:space="preserve"
         style="font-style:normal;font-variant:normal;font-weight:normal;font-stretch:normal;font-size:4px;line-height:1.25;font-family:Palatino;-inkscape-font-specification:'Palatino, Normal';font-variant-ligatures:normal;font-variant-caps:normal;font-variant-numeric:normal;font-variant-east-asian:normal;letter-spacing:2px"
         x="452.46432"
         y="851.53662"
         id="LabelIllinois"><tspan
           id="tspan63"
           x="452.46432"
           y="851.53662">ILLINOIS</tspan></text><text
         xml:space="preserve"
         style="font-style:normal;font-variant:normal;font-weight:normal;font-stretch:normal;font-size:4px;line-height:1.25;font-family:Palatino;-inkscape-font-specification:'Palatino, Normal';font-variant-ligatures:normal;font-variant-caps:normal;font-variant-numeric:normal;font-variant-east-asian:normal;letter-spacing:2px"
         x="476.00378"
         y="857.33472"
         id="LabelIndiana"><tspan
           id="tspan64"
           x="476.00378"
           y="857.33472">INDIANA</tspan></text><text
         xml:space="preserve"
         style="font-style:normal;font-variant:normal;font-weight:normal;font-stretch:normal;font-size:4px;line-height:1.25;font-family:Palatino;-inkscape-font-specification:'Palatino, Normal';font-variant-ligatures:normal;font-variant-caps:normal;font-variant-numeric:normal;font-variant-east-asian:normal;letter-spacing:2px"
         x="508.96234"
         y="850.16931"
         id="LabelOhio"><tspan
           id="tspan65"
           x="508.96234"
           y="850.16931">OHIO</tspan></text><text
         xml:space="preserve"
         style="font-style:normal;font-variant:normal;font-weight:normal;font-stretch:normal;font-size:4px;line-height:1.25;font-family:Palatino;-inkscape-font-specification:'Palatino, Normal';font-variant-ligatures:normal;font-variant-caps:normal;font-variant-numeric:normal;font-variant-east-asian:normal;letter-spacing:2px"
         x="475.99051"
         y="876.88403"
         id="LabelKentucky"><tspan
           id="tspan66"
           x="475.99051"
           y="876.88403">KENTUCKY</tspan></text><text
         xml:space="preserve"
         style="font-style:normal;font-variant:normal;font-weight:normal;font-stretch:normal;font-size:4px;line-height:1.25;font-family:Palatino;-inkscape-font-specification:'Palatino, Normal';font-variant-ligatures:normal;font-variant-caps:normal;font-variant-numeric:normal;font-variant-east-asian:normal;letter-spacing:2px"
         x="465.68454"
         y="885.96344"
         id="LabelTennessee"><tspan
           id="tspan67"
           x="465.68454"
           y="885.96344">TENNESSEE</tspan></text><text
         xml:space="preserve"
         style="font-style:normal;font-variant:normal;font-weight:normal;font-stretch:normal;font-size:4px;line-height:1.25;font-family:Palatino;-inkscape-font-specification:'Palatino, Normal';font-variant-ligatures:normal;font-variant-caps:normal;font-variant-numeric:normal;font-variant-east-asian:normal;letter-spacing:2px"
         x="456.40137"
         y="904.2077"
         id="LabelMississippi"><tspan
           id="tspan68"
           x="456.40137"
           y="904.2077">MISS.</tspan></text><text
         xml:space="preserve"
         style="font-style:normal;font-variant:normal;font-weight:normal;font-stretch:normal;font-size:4px;line-height:1.25;font-family:Palatino;-inkscape-font-specification:'Palatino, Normal';font-variant-ligatures:normal;font-variant-caps:normal;font-variant-numeric:normal;font-variant-east-asian:normal;letter-spacing:2px"
         x="475.00281"
         y="911.34998"
         id="LabelAlabama"><tspan
           id="tspan69"
           x="475.00281"
           y="911.34998">ALABAMA</tspan></text><text
         xml:space="preserve"
         style="font-style:normal;font-variant:normal;font-weight:normal;font-stretch:normal;font-size:4px;line-height:1.25;font-family:Palatino;-inkscape-font-specification:'Palatino, Normal';font-variant-ligatures:normal;font-variant-caps:normal;font-variant-numeric:normal;font-variant-east-asian:normal;letter-spacing:2px"
         x="509.96661"
         y="915.44812"
         id="LabelGeorgia"><tspan
           id="tspan70"
           x="509.96661"
           y="915.44812">GEORGIA</tspan></text><text
         xml:space="preserve"
         style="font-style:normal;font-variant:normal;font-weight:normal;font-stretch:normal;font-size:4px;line-height:1.25;font-family:Palatino;-inkscape-font-specification:'Palatino, Normal';font-variant-ligatures:normal;font-variant-caps:normal;font-variant-numeric:normal;font-variant-east-asian:normal;letter-spacing:2px"
         x="502.87082"
         y="939.49768"
         id="LabelFlorida"><tspan
           id="tspan71"
           x="502.87082"
           y="939.49768">FLORIDA</tspan></text><text
         xml:space="preserve"
         style="font-style:normal;font-variant:normal;font-weight:normal;font-stretch:normal;font-size:4px;line-height:1.25;font-family:Palatino;-inkscape-font-specification:'Palatino, Normal';font-variant-ligatures:normal;font-variant-caps:normal;font-variant-numeric:normal;font-variant-east-asian:normal;letter-spacing:2px"
         x="439.02567"
         y="925.26129"
         id="LabelLouisiana"><tspan
           id="tspan72"
           x="439.02567"
           y="925.26129">LOUISIANA</tspan></text><text
         xml:space="preserve"
         style="font-style:normal;font-variant:normal;font-weight:normal;font-stretch:normal;font-size:4px;line-height:1.25;font-family:Palatino;-inkscape-font-specification:'Palatino, Normal';font-variant-ligatures:normal;font-variant-caps:normal;font-variant-numeric:normal;font-variant-east-asian:normal;letter-spacing:2px"
         x="515.68024"
         y="897.75641"
         id="LabelSouthCarolina"><tspan
           id="tspan73"
           x="515.68024"
           y="897.75641">SOUTH</tspan><tspan
           x="515.68024"
           y="902.75641"
           id="tspan96">CAROLINA</tspan></text><text
         xml:space="preserve"
         style="font-style:normal;font-variant:normal;font-weight:normal;font-stretch:normal;font-size:4px;line-height:1.25;font-family:Palatino;-inkscape-font-specification:'Palatino, Normal';font-variant-ligatures:normal;font-variant-caps:normal;font-variant-numeric:normal;font-variant-east-asian:normal;letter-spacing:2px"
         x="528.33057"
         y="884.32959"
         id="LabelNorthCarolina"><tspan
           id="tspan74"
           x="528.33057"
           y="884.32959">NORTH</tspan><tspan
           x="528.33057"
           y="889.32959"
           id="tspan505">CAROLINA</tspan></text><text
         xml:space="preserve"
         style="font-style:normal;font-variant:normal;font-weight:normal;font-stretch:normal;font-size:4px;line-height:1.25;font-family:Palatino;-inkscape-font-specification:'Palatino, Normal';font-variant-ligatures:normal;font-variant-caps:normal;font-variant-numeric:normal;font-variant-east-asian:normal;letter-spacing:2px"
         x="530.36572"
         y="877.42798"
         id="LabelVirginia"><tspan
           id="tspan75"
           x="530.36572"
           y="877.42798">VIRGINIA</tspan></text><text
         xml:space="preserve"
         style="font-style:normal;font-variant:normal;font-weight:normal;font-stretch:normal;font-size:4px;line-height:1.25;font-family:Palatino;-inkscape-font-specification:'Palatino, Normal';font-variant-ligatures:normal;font-variant-caps:normal;font-variant-numeric:normal;font-variant-east-asian:normal;letter-spacing:2px"
         x="519.539"
         y="865.12708"
         id="LabelWestVirginia"><tspan
           id="tspan76"
           x="519.539"
           y="865.12708">W.</tspan><tspan
           x="519.539"
           y="870.12708"
           id="tspan91">VIRG.</tspan></text><text
         xml:space="preserve"
         transform="translate(391.55607,-227.05754)"
         id="LabelMaine"
         style="font-style:normal;font-variant:normal;font-weight:normal;font-stretch:normal;font-size:4px;line-height:1.25;font-family:Palatino;-inkscape-font-specification:'Palatino, Normal';font-variant-ligatures:normal;font-variant-caps:normal;font-variant-numeric:normal;font-variant-east-asian:normal;letter-spacing:2px;white-space:pre;shape-inside:url(#rect56-5-6-0-0-3-6-3-73-7);display:inline;stroke-linecap:round;stroke-linejoin:round"><tspan
           x="208.48633"
           y="1045.5111"
           id="tspan19">MAINE</tspan></text><text
         xml:space="preserve"
         transform="translate(335.34571,-208.89303)"
         id="LabelNewYork"
         style="font-style:normal;font-variant:normal;font-weight:normal;font-stretch:normal;font-size:4px;line-height:1.25;font-family:Palatino;-inkscape-font-specification:'Palatino, Normal';font-variant-ligatures:normal;font-variant-caps:normal;font-variant-numeric:normal;font-variant-east-asian:normal;letter-spacing:2px;white-space:pre;shape-inside:url(#rect56-5-6-0-0-3-6-3-73-3);display:inline;stroke-linecap:round;stroke-linejoin:round"><tspan
           x="208.48633"
           y="1045.5111"
           id="tspan20">NEW YORK</tspan></text><text
         xml:space="preserve"
         style="font-style:normal;font-variant:normal;font-weight:normal;font-stretch:normal;font-size:4px;line-height:1.25;font-family:Palatino;-inkscape-font-specification:'Palatino, Normal';font-variant-ligatures:normal;font-variant-caps:normal;font-variant-numeric:normal;font-variant-east-asian:normal;letter-spacing:2px"
         x="580.60284"
         y="842.86841"
         id="LabelMassachusetts"><tspan
           id="tspan79"
           x="580.60284"
           y="842.86841">MASS.</tspan></text><text
         xml:space="preserve"
         style="font-style:normal;font-variant:normal;font-weight:normal;font-stretch:normal;font-size:4px;line-height:1.25;font-family:Palatino;-inkscape-font-specification:'Palatino, Normal';font-variant-ligatures:normal;font-variant-caps:normal;font-variant-numeric:normal;font-variant-east-asian:normal;letter-spacing:2px"
         x="433.31567"
         y="889.71991"
         id="LabelArkansas"><tspan
           id="tspan80"
           x="433.31567"
           y="889.71991">ARKAN.</tspan></text><text
         xml:space="preserve"
         style="font-style:normal;font-variant:normal;font-weight:normal;font-stretch:normal;font-size:4px;line-height:1.25;font-family:Palatino;-inkscape-font-specification:'Palatino, Normal';font-variant-ligatures:normal;font-variant-caps:normal;font-variant-numeric:normal;font-variant-east-asian:normal;letter-spacing:2px"
         x="432.46747"
         y="870.49347"
         id="LabelMissouri"><tspan
           id="tspan81"
           x="432.46747"
           y="870.49347">MISSOURI</tspan></text><text
         xml:space="preserve"
         style="font-style:normal;font-variant:normal;font-weight:normal;font-stretch:normal;font-size:4px;line-height:1.25;font-family:Palatino;-inkscape-font-specification:'Palatino, Normal';font-variant-ligatures:normal;font-variant-caps:normal;font-variant-numeric:normal;font-variant-east-asian:normal;letter-spacing:2px"
         x="534.97809"
         y="847.35321"
         id="LabelPennsylvania"><tspan
           id="tspan82"
           x="534.97809"
           y="847.35321">PENNSYL</tspan><tspan
           x="534.97809"
           y="852.35321"
           id="tspan89">VANIA</tspan></text><text
         xml:space="preserve"
         style="font-style:normal;font-variant:normal;font-weight:normal;font-stretch:normal;font-size:4px;line-height:1.25;font-family:Palatino;-inkscape-font-specification:'Palatino, Normal';font-variant-ligatures:normal;font-variant-caps:normal;font-variant-numeric:normal;font-variant-east-asian:normal;letter-spacing:2px"
         x="390.34128"
         y="918.24969"
         id="LabelTexas"><tspan
           id="tspan83"
           x="390.34128"
           y="918.24969">TEXAS</tspan></text><text
         xml:space="preserve"
         style="font-style:normal;font-variant:normal;font-weight:normal;font-stretch:normal;font-size:4px;line-height:1.25;font-family:Palatino;-inkscape-font-specification:'Palatino, Normal';font-variant-ligatures:normal;font-variant-caps:normal;font-variant-numeric:normal;font-variant-east-asian:normal;letter-spacing:2px"
         x="576.33185"
         y="858.13831"
         id="LabelNewJersey"><tspan
           id="tspan84"
           x="576.33185"
           y="858.13831">NEW JERSEY</tspan></text><text
         xml:space="preserve"
         style="font-style:normal;font-variant:normal;font-weight:normal;font-stretch:normal;font-size:4px;line-height:1.25;font-family:Palatino;-inkscape-font-specification:'Palatino, Normal';font-variant-ligatures:normal;font-variant-caps:normal;font-variant-numeric:normal;font-variant-east-asian:normal;letter-spacing:2px;stroke-linecap:round;stroke-linejoin:round"
         x="570.34131"
         y="868.58441"
         id="LabelMaryland"><tspan
           id="tspan84-9"
           x="570.34131"
           y="868.58441">MARYLAND</tspan></text><text
         xml:space="preserve"
         style="font-style:normal;font-variant:normal;font-weight:normal;font-stretch:normal;font-size:4px;line-height:1.25;font-family:Palatino;-inkscape-font-specification:'Palatino, Normal';font-variant-ligatures:normal;font-variant-caps:normal;font-variant-numeric:normal;font-variant-east-asian:normal;letter-spacing:2px"
         x="573.51343"
         y="826.53882"
         id="LabelVermont"><tspan
           x="573.51343"
           y="826.53882"
           id="tspan88">VERMONT</tspan></text></g></g></svg>
